<?xml version="1.0" encoding="UTF-8"?>
<svg xmlns="http://www.w3.org/2000/svg" version="1.1" width="300" height="300" viewBox="0 0 300 300"><rect x="0" y="0" width="300" height="300" fill="#ffffff"/><g transform="scale(10.345)"><g transform="translate(0,0)"><path fill-rule="evenodd" d="M11 0L11 1L9 1L9 2L11 2L11 1L13 1L13 2L12 2L12 4L13 4L13 3L14 3L14 2L15 2L15 3L16 3L16 4L15 4L15 6L14 6L14 8L17 8L17 9L16 9L16 10L14 10L14 9L12 9L12 7L13 7L13 5L11 5L11 6L10 6L10 8L9 8L9 10L8 10L8 8L5 8L5 9L7 9L7 10L6 10L6 11L5 11L5 10L4 10L4 9L2 9L2 8L0 8L0 9L2 9L2 10L0 10L0 11L2 11L2 12L1 12L1 13L0 13L0 14L2 14L2 18L1 18L1 17L0 17L0 21L1 21L1 19L3 19L3 20L2 20L2 21L3 21L3 20L4 20L4 21L5 21L5 20L6 20L6 21L7 21L7 20L8 20L8 24L9 24L9 26L10 26L10 27L8 27L8 29L9 29L9 28L10 28L10 27L11 27L11 26L10 26L10 25L11 25L11 24L12 24L12 23L13 23L13 22L10 22L10 21L9 21L9 20L11 20L11 19L12 19L12 21L13 21L13 20L14 20L14 22L15 22L15 23L14 23L14 24L13 24L13 25L12 25L12 26L13 26L13 27L12 27L12 29L13 29L13 28L14 28L14 29L15 29L15 28L16 28L16 27L19 27L19 29L20 29L20 25L21 25L21 27L22 27L22 29L23 29L23 28L24 28L24 29L27 29L27 27L28 27L28 28L29 28L29 27L28 27L28 26L29 26L29 23L28 23L28 24L27 24L27 25L26 25L26 24L25 24L25 23L27 23L27 22L26 22L26 21L29 21L29 20L26 20L26 21L25 21L25 19L26 19L26 18L28 18L28 19L29 19L29 17L27 17L27 14L29 14L29 12L28 12L28 13L27 13L27 14L25 14L25 13L24 13L24 10L25 10L25 9L26 9L26 10L28 10L28 9L26 9L26 8L24 8L24 9L23 9L23 12L22 12L22 14L23 14L23 15L21 15L21 16L20 16L20 17L18 17L18 16L19 16L19 14L21 14L21 13L20 13L20 12L21 12L21 10L20 10L20 9L21 9L21 8L20 8L20 7L21 7L21 6L20 6L20 7L19 7L19 5L21 5L21 1L20 1L20 4L18 4L18 3L16 3L16 2L17 2L17 0L15 0L15 1L13 1L13 0ZM18 0L18 1L19 1L19 0ZM15 1L15 2L16 2L16 1ZM8 3L8 5L10 5L10 4L9 4L9 3ZM17 4L17 5L16 5L16 6L15 6L15 7L16 7L16 6L17 6L17 8L18 8L18 9L20 9L20 8L19 8L19 7L18 7L18 4ZM8 6L8 7L9 7L9 6ZM11 6L11 7L12 7L12 6ZM10 8L10 10L9 10L9 11L10 11L10 13L9 13L9 12L8 12L8 11L6 11L6 12L5 12L5 13L4 13L4 12L2 12L2 14L3 14L3 15L4 15L4 17L3 17L3 19L4 19L4 17L5 17L5 19L6 19L6 20L7 20L7 19L8 19L8 18L12 18L12 19L14 19L14 20L15 20L15 21L16 21L16 23L17 23L17 25L16 25L16 24L15 24L15 25L16 25L16 26L18 26L18 25L19 25L19 24L18 24L18 23L19 23L19 22L20 22L20 21L19 21L19 22L18 22L18 23L17 23L17 20L20 20L20 19L19 19L19 18L16 18L16 20L15 20L15 18L12 18L12 17L15 17L15 16L16 16L16 17L17 17L17 16L18 16L18 15L15 15L15 13L16 13L16 14L18 14L18 13L19 13L19 12L20 12L20 10L17 10L17 13L16 13L16 12L15 12L15 11L14 11L14 13L11 13L11 12L12 12L12 11L13 11L13 10L12 10L12 9L11 9L11 8ZM3 10L3 11L4 11L4 10ZM10 10L10 11L11 11L11 10ZM25 11L25 12L26 12L26 11ZM6 12L6 13L7 13L7 14L5 14L5 17L7 17L7 16L6 16L6 15L10 15L10 17L12 17L12 15L13 15L13 14L9 14L9 13L7 13L7 12ZM3 13L3 14L4 14L4 13ZM24 14L24 15L23 15L23 16L22 16L22 17L21 17L21 20L22 20L22 19L23 19L23 20L24 20L24 19L25 19L25 18L26 18L26 17L25 17L25 16L26 16L26 15L25 15L25 14ZM0 15L0 16L1 16L1 15ZM24 15L24 16L25 16L25 15ZM28 15L28 16L29 16L29 15ZM22 17L22 18L23 18L23 19L24 19L24 18L25 18L25 17ZM6 18L6 19L7 19L7 18ZM21 21L21 24L24 24L24 21ZM22 22L22 23L23 23L23 22ZM22 25L22 26L23 26L23 25ZM24 25L24 26L25 26L25 25ZM27 25L27 26L28 26L28 25ZM17 28L17 29L18 29L18 28ZM0 0L0 7L7 7L7 0ZM1 1L1 6L6 6L6 1ZM2 2L2 5L5 5L5 2ZM22 0L22 7L29 7L29 0ZM23 1L23 6L28 6L28 1ZM24 2L24 5L27 5L27 2ZM0 22L0 29L7 29L7 22ZM1 23L1 28L6 28L6 23ZM2 24L2 27L5 27L5 24Z" fill="#000000"/></g></g></svg>
